<?xml version="1.0" encoding="UTF-8"?>
<svg version="1.1" xmlns="http://www.w3.org/2000/svg" viewBox="-100 -100 1200 1200">
<defs>
  <linearGradient id="diagGradient" x1="100%" y1="0%" x2="0%" y2="100%">
    <stop offset="0%" stop-color="#3160f9"/>
    <stop offset="100%" stop-color="#00a0ee"/>
  </linearGradient>
</defs>
<path d="M0 0 C502.80838551 0 502.80838551 0 537.25 5.75 C538.02508911 5.87594543 538.80017822 6.00189087 539.59875488 6.13165283 C564.26493132 10.15343386 588.25724443 16.17988651 612 24 C612.8883252 24.28842773 613.77665039 24.57685547 614.69189453 24.87402344 C657.80524571 38.95755382 698.88542201 61.01610453 733 91 C733.69867187 91.59941406 734.39734375 92.19882813 735.1171875 92.81640625 C737.098715 94.5224932 739.05271786 96.2548947 741 98 C741.70310303 98.62745117 741.70310303 98.62745117 742.42041016 99.26757812 C807.70004606 157.73666341 838.88877002 244.02872165 844 330 C844.14777194 334.65392988 844.18682135 339.30485523 844.203125 343.9609375 C844.20882507 345.26737213 844.21452515 346.57380676 844.22039795 347.91983032 C844.23081862 350.67800268 844.23671586 353.43614676 844.24023438 356.19433594 C844.24456705 358.94935733 844.25827091 361.70405632 844.28125 364.45898438 C844.49455224 390.61310105 842.76378164 416.37949141 838.25 442.1875 C838.12305756 442.92827789 837.99611511 443.66905579 837.86532593 444.43228149 C831.79618638 479.66308947 821.33858423 513.69894725 806 546 C805.59458984 546.86834473 805.18917969 547.73668945 804.77148438 548.63134766 C784.237994 592.41204256 751.71458159 635.57062294 713 665 C711.62063273 666.09283038 710.24320512 667.18811122 708.8671875 668.28515625 C699.54298367 675.68601765 690.08207688 682.66871034 680 689 C679.2874707 689.45020508 678.57494141 689.90041016 677.84082031 690.36425781 C601.75842779 738.10800434 512.85879033 757.86250399 392.05078125 763.09765625 C389.81349215 763.09578569 387.57620263 763.09436481 385.33891296 763.09336853 C379.51780011 763.08959356 373.69671314 763.07980763 367.87561035 763.06866455 C361.90861359 763.05834103 355.94161254 763.05384773 349.97460938 763.04882812 C338.31639502 763.03817962 326.65819968 763.0211654 315 763 C315.00276538 763.99814822 315.00553076 764.99629644 315.00837994 766.02469158 C315.07507179 790.34714818 315.12432147 814.66959287 315.15543652 838.9921217 C315.17088467 850.75446517 315.19193492 862.51674812 315.22631836 874.27905273 C315.25628357 884.53483237 315.27558991 894.79056816 315.28226548 905.04639035 C315.28616568 910.4733516 315.29528882 915.90018745 315.31719017 921.32710838 C315.33766791 926.44309102 315.34381111 931.55889749 315.33932304 936.67491722 C315.34014322 938.5448706 315.3460412 940.41483034 315.35761642 942.28474808 C315.4554672 958.91864077 314.21690075 974.54780587 302.25 987.3125 280.3911232 1005.96608453 100.83872446 1000 0 1000 C0 670 0 340 0 0 Z " fill="url(#diagGradient)"
 transform="translate(78,0)"/>
</svg>
